<svg xmlns="http://www.w3.org/2000/svg" xmlns:xlink="http://www.w3.org/1999/xlink" width="1864" zoomAndPan="magnify" viewBox="0 0 1398 449.999984" height="600" preserveAspectRatio="xMidYMid meet" version="1.0"><defs><g/><clipPath id="70868e6c5b"><path d="M 1257.746094 338.519531 L 1334.90625 338.519531 L 1334.90625 415.683594 L 1257.746094 415.683594 Z M 1257.746094 338.519531 " clip-rule="nonzero"/></clipPath></defs><rect x="-139.8" width="1677.6" fill="#ffffff" y="-44.999998" height="539.99998" fill-opacity="1"/><rect x="-139.8" width="1677.6" fill="#ffffff" y="-44.999998" height="539.99998" fill-opacity="1"/><g fill="#9e0059" fill-opacity="1"><g transform="translate(16.511424, 427.829208)"><g><path d="M 44.90625 1.453125 C 31.875 -5.304688 21.851562 -16.535156 14.84375 -32.234375 C 7.84375 -47.929688 4.34375 -63.75 4.34375 -79.6875 C 4.34375 -88.851562 5.550781 -97.539062 7.96875 -105.75 C 10.382812 -113.96875 14.003906 -120.488281 18.828125 -125.3125 C 25.109375 -131.59375 34.765625 -139.320312 47.796875 -148.5 C 60.835938 -157.675781 75.6875 -167.9375 92.34375 -179.28125 C 109.007812 -190.632812 125.914062 -202.222656 143.0625 -214.046875 C 160.207031 -225.878906 175.898438 -237.46875 190.140625 -248.8125 C 204.390625 -260.164062 215.378906 -270.671875 223.109375 -280.328125 L 223.109375 -281.0625 L 119.515625 -281.0625 C 105.515625 -281.0625 95.492188 -284.921875 89.453125 -292.640625 C 83.421875 -300.367188 80.40625 -309.546875 80.40625 -320.171875 C 80.40625 -330.316406 82.335938 -340.578125 86.203125 -350.953125 C 90.066406 -361.335938 95.015625 -370.632812 101.046875 -378.84375 C 107.085938 -387.050781 113.242188 -392.363281 119.515625 -394.78125 C 129.179688 -390.914062 139.566406 -388.140625 150.671875 -386.453125 C 161.773438 -384.765625 173.609375 -383.921875 186.171875 -383.921875 C 205.960938 -383.921875 226.484375 -385.003906 247.734375 -387.171875 C 268.984375 -389.347656 288.785156 -390.4375 307.140625 -390.4375 C 329.835938 -390.4375 347.582031 -387.898438 360.375 -382.828125 C 373.175781 -377.753906 382.234375 -369.0625 387.546875 -356.75 C 392.859375 -344.4375 395.515625 -327.175781 395.515625 -304.96875 C 395.515625 -296.75 391.046875 -287.566406 382.109375 -277.421875 C 373.171875 -267.285156 362.785156 -257.269531 350.953125 -247.375 C 339.128906 -237.476562 328.382812 -229.148438 318.71875 -222.390625 C 311 -216.585938 300.617188 -209.097656 287.578125 -199.921875 C 274.535156 -190.753906 261.007812 -181.097656 247 -170.953125 C 233 -160.804688 220.445312 -150.90625 209.34375 -141.25 C 198.238281 -131.59375 190.753906 -123.625 186.890625 -117.34375 C 192.679688 -117.34375 198.71875 -117.460938 205 -117.703125 C 211.28125 -117.953125 218.28125 -118.078125 226 -118.078125 C 243.382812 -118.078125 260.164062 -116.265625 276.34375 -112.640625 C 292.519531 -109.015625 305.800781 -101.523438 316.1875 -90.171875 C 326.570312 -78.828125 331.765625 -61.082031 331.765625 -36.9375 C 331.765625 -22.457031 329.347656 -8.210938 324.515625 5.796875 C 307.128906 -1.453125 286.847656 -6.398438 263.671875 -9.046875 C 240.492188 -11.703125 217.070312 -13.03125 193.40625 -13.03125 C 162.5 -13.03125 133.523438 -11.460938 106.484375 -8.328125 C 79.441406 -5.191406 58.914062 -1.929688 44.90625 1.453125 Z M 44.90625 1.453125 "/></g></g></g><g fill="#9e0059" fill-opacity="1"><g transform="translate(369.99714, 427.829208)"><g><path d="M 227.453125 -287.578125 C 220.210938 -287.578125 211.882812 -283.953125 202.46875 -276.703125 C 193.050781 -269.460938 183.753906 -259.925781 174.578125 -248.09375 C 165.398438 -236.257812 156.945312 -223.34375 149.21875 -209.34375 C 153.5625 -208.375 157.90625 -207.648438 162.25 -207.171875 C 166.601562 -206.691406 170.710938 -206.453125 174.578125 -206.453125 C 190.515625 -206.453125 203.789062 -209.707031 214.40625 -216.21875 C 225.03125 -222.738281 232.878906 -230.707031 237.953125 -240.125 C 243.023438 -249.539062 245.5625 -258.113281 245.5625 -265.84375 C 245.5625 -272.125 244.113281 -277.316406 241.21875 -281.421875 C 238.320312 -285.523438 233.734375 -287.578125 227.453125 -287.578125 Z M 186.890625 -137.625 C 177.234375 -137.625 167.570312 -138.953125 157.90625 -141.609375 C 148.25 -144.265625 138.59375 -148.734375 128.9375 -155.015625 C 127.488281 -148.734375 126.765625 -142.457031 126.765625 -136.1875 C 126.765625 -123.625 130.382812 -113.117188 137.625 -104.671875 C 144.875 -96.222656 156.945312 -92 173.84375 -92 C 186.40625 -92 200.050781 -94.050781 214.78125 -98.15625 C 229.507812 -102.257812 243.992188 -107.8125 258.234375 -114.8125 C 272.484375 -121.8125 285.039062 -129.175781 295.90625 -136.90625 C 306.769531 -144.632812 314.617188 -152.117188 319.453125 -159.359375 C 315.109375 -133.765625 305.8125 -110.828125 291.5625 -90.546875 C 277.3125 -70.265625 260.164062 -52.878906 240.125 -38.390625 C 220.082031 -23.898438 198.832031 -12.910156 176.375 -5.421875 C 153.925781 2.054688 132.078125 5.796875 110.828125 5.796875 C 81.367188 5.796875 56.015625 -2.289062 34.765625 -18.46875 C 13.515625 -34.644531 2.890625 -60.363281 2.890625 -95.625 C 2.890625 -119.28125 7.960938 -144.75 18.109375 -172.03125 C 28.253906 -199.320312 42.140625 -226.125 59.765625 -252.4375 C 77.390625 -278.757812 97.304688 -302.785156 119.515625 -324.515625 C 141.734375 -346.242188 165.035156 -363.628906 189.421875 -376.671875 C 213.804688 -389.710938 237.59375 -396.234375 260.78125 -396.234375 C 293.132812 -396.234375 316.3125 -388.625 330.3125 -373.40625 C 344.320312 -358.195312 351.328125 -339.726562 351.328125 -318 C 351.328125 -297.71875 346.738281 -277.070312 337.5625 -256.0625 C 328.382812 -235.0625 316.066406 -215.625 300.609375 -197.75 C 285.160156 -179.882812 267.65625 -165.394531 248.09375 -154.28125 C 228.539062 -143.175781 208.140625 -137.625 186.890625 -137.625 Z M 186.890625 -137.625 "/></g></g></g><g fill="#9e0059" fill-opacity="1"><g transform="translate(688.713747, 427.829208)"><g><path d="M 227.453125 -287.578125 C 220.210938 -287.578125 211.882812 -283.953125 202.46875 -276.703125 C 193.050781 -269.460938 183.753906 -259.925781 174.578125 -248.09375 C 165.398438 -236.257812 156.945312 -223.34375 149.21875 -209.34375 C 153.5625 -208.375 157.90625 -207.648438 162.25 -207.171875 C 166.601562 -206.691406 170.710938 -206.453125 174.578125 -206.453125 C 190.515625 -206.453125 203.789062 -209.707031 214.40625 -216.21875 C 225.03125 -222.738281 232.878906 -230.707031 237.953125 -240.125 C 243.023438 -249.539062 245.5625 -258.113281 245.5625 -265.84375 C 245.5625 -272.125 244.113281 -277.316406 241.21875 -281.421875 C 238.320312 -285.523438 233.734375 -287.578125 227.453125 -287.578125 Z M 186.890625 -137.625 C 177.234375 -137.625 167.570312 -138.953125 157.90625 -141.609375 C 148.25 -144.265625 138.59375 -148.734375 128.9375 -155.015625 C 127.488281 -148.734375 126.765625 -142.457031 126.765625 -136.1875 C 126.765625 -123.625 130.382812 -113.117188 137.625 -104.671875 C 144.875 -96.222656 156.945312 -92 173.84375 -92 C 186.40625 -92 200.050781 -94.050781 214.78125 -98.15625 C 229.507812 -102.257812 243.992188 -107.8125 258.234375 -114.8125 C 272.484375 -121.8125 285.039062 -129.175781 295.90625 -136.90625 C 306.769531 -144.632812 314.617188 -152.117188 319.453125 -159.359375 C 315.109375 -133.765625 305.8125 -110.828125 291.5625 -90.546875 C 277.3125 -70.265625 260.164062 -52.878906 240.125 -38.390625 C 220.082031 -23.898438 198.832031 -12.910156 176.375 -5.421875 C 153.925781 2.054688 132.078125 5.796875 110.828125 5.796875 C 81.367188 5.796875 56.015625 -2.289062 34.765625 -18.46875 C 13.515625 -34.644531 2.890625 -60.363281 2.890625 -95.625 C 2.890625 -119.28125 7.960938 -144.75 18.109375 -172.03125 C 28.253906 -199.320312 42.140625 -226.125 59.765625 -252.4375 C 77.390625 -278.757812 97.304688 -302.785156 119.515625 -324.515625 C 141.734375 -346.242188 165.035156 -363.628906 189.421875 -376.671875 C 213.804688 -389.710938 237.59375 -396.234375 260.78125 -396.234375 C 293.132812 -396.234375 316.3125 -388.625 330.3125 -373.40625 C 344.320312 -358.195312 351.328125 -339.726562 351.328125 -318 C 351.328125 -297.71875 346.738281 -277.070312 337.5625 -256.0625 C 328.382812 -235.0625 316.066406 -215.625 300.609375 -197.75 C 285.160156 -179.882812 267.65625 -165.394531 248.09375 -154.28125 C 228.539062 -143.175781 208.140625 -137.625 186.890625 -137.625 Z M 186.890625 -137.625 "/></g></g></g><g fill="#9e0059" fill-opacity="1"><g transform="translate(1007.430399, 427.829208)"><g><path d="M -11.59375 -60.84375 C -11.59375 -69.539062 -8.453125 -82.703125 -2.171875 -100.328125 C 4.109375 -117.953125 12.195312 -138.234375 22.09375 -161.171875 C 31.988281 -184.109375 42.734375 -208.007812 54.328125 -232.875 C 65.921875 -257.75 76.90625 -282.257812 87.28125 -306.40625 C 97.664062 -330.550781 106.597656 -352.398438 114.078125 -371.953125 C 121.566406 -391.515625 126.035156 -407.332031 127.484375 -419.40625 C 152.597656 -419.40625 172.273438 -410.226562 186.515625 -391.875 C 200.765625 -373.53125 208.375 -351.5625 209.34375 -325.96875 C 215.625 -330.3125 222.988281 -336.585938 231.4375 -344.796875 C 239.882812 -353.003906 249.660156 -361.453125 260.765625 -370.140625 C 271.878906 -378.835938 284.078125 -386.082031 297.359375 -391.875 C 310.640625 -397.675781 325.25 -400.578125 341.1875 -400.578125 C 354.21875 -400.578125 364.113281 -395.625 370.875 -385.71875 C 377.632812 -375.820312 381.015625 -363.148438 381.015625 -347.703125 C 381.015625 -330.796875 376.664062 -312.203125 367.96875 -291.921875 C 359.28125 -271.640625 346.003906 -252.925781 328.140625 -235.78125 C 310.273438 -218.632812 287.578125 -205.957031 260.046875 -197.75 C 268.253906 -208.863281 274.53125 -221.785156 278.875 -236.515625 C 283.226562 -251.242188 285.40625 -263.4375 285.40625 -273.09375 C 285.40625 -285.644531 279.609375 -291.921875 268.015625 -291.921875 C 255.941406 -291.921875 240.242188 -285.398438 220.921875 -272.359375 C 201.609375 -259.328125 184.710938 -242.1875 170.234375 -220.9375 C 163.953125 -211.28125 156.460938 -197.273438 147.765625 -178.921875 C 139.078125 -160.566406 130.382812 -140.523438 121.6875 -118.796875 C 113 -97.066406 105.03125 -75.9375 97.78125 -55.40625 C 90.539062 -34.882812 84.988281 -17.378906 81.125 -2.890625 C 70.019531 -2.890625 57.222656 -4.335938 42.734375 -7.234375 C 28.242188 -10.140625 15.566406 -15.816406 4.703125 -24.265625 C -6.160156 -32.710938 -11.59375 -44.90625 -11.59375 -60.84375 Z M -11.59375 -60.84375 "/></g></g></g><path fill="#9e0059" d="M 1279.984375 356.503906 L 1302.328125 356.503906 C 1309.757812 356.503906 1314.457031 361.671875 1314.457031 367.9375 C 1314.457031 372.8125 1312.542969 376.46875 1307.902344 378.328125 L 1307.902344 378.441406 C 1312.367188 379.660156 1313.644531 383.898438 1313.9375 388.132812 C 1314.109375 390.746094 1313.996094 395.679688 1315.679688 397.941406 L 1306.566406 397.941406 C 1305.523438 395.332031 1305.582031 391.324219 1305.117188 388.019531 C 1304.476562 383.664062 1302.796875 381.75 1298.210938 381.75 L 1289.097656 381.75 L 1289.097656 397.941406 L 1279.984375 397.941406 Z M 1289.097656 375.25 L 1299.082031 375.25 C 1303.203125 375.25 1305.351562 373.507812 1305.351562 369.328125 C 1305.351562 365.324219 1303.203125 363.585938 1299.082031 363.585938 L 1289.097656 363.585938 Z M 1289.097656 375.25 " fill-opacity="1" fill-rule="nonzero"/><g clip-path="url(#70868e6c5b)"><path fill="#9e0059" d="M 1296.5 415.921875 C 1286.433594 415.921875 1276.890625 412.117188 1269.628906 405.121094 C 1262.347656 398.105469 1258.148438 388.699219 1257.792969 378.597656 C 1257.761719 377.632812 1257.761719 376.664062 1257.804688 375.699219 C 1258.210938 365.632812 1262.4375 356.261719 1269.710938 349.292969 C 1276.960938 342.34375 1286.472656 338.519531 1296.496094 338.519531 C 1297.023438 338.519531 1297.554688 338.53125 1298.082031 338.554688 C 1308.300781 338.964844 1317.78125 343.300781 1324.78125 350.757812 C 1331.777344 358.214844 1335.503906 367.953125 1335.269531 378.175781 C 1334.777344 398.671875 1318.351562 415.234375 1297.867188 415.949219 C 1297.414062 415.964844 1296.953125 415.921875 1296.5 415.921875 Z M 1296.496094 345.273438 C 1279.277344 345.273438 1265.246094 358.765625 1264.550781 375.984375 C 1264.519531 376.78125 1264.515625 377.640625 1264.542969 378.4375 C 1265.144531 395.757812 1279.179688 409.375 1296.5 409.375 C 1296.875 409.375 1297.257812 409.316406 1297.636719 409.304688 C 1314.550781 408.714844 1328.117188 394.96875 1328.519531 378.046875 C 1328.917969 360.703125 1315.140625 346.015625 1297.8125 345.316406 C 1297.375 345.296875 1296.933594 345.273438 1296.496094 345.273438 Z M 1296.496094 345.273438 " fill-opacity="1" fill-rule="nonzero"/></g></svg>